<?xml version="1.0" encoding="utf-8"?>
<!-- Generator: Adobe Illustrator 25.2.3, SVG Export Plug-In . SVG Version: 6.00 Build 0)  -->
<svg version="1.1" id="Layer_1" xmlns="http://www.w3.org/2000/svg" xmlns:xlink="http://www.w3.org/1999/xlink" x="0px" y="0px"
	 viewBox="0 0 138.7 71.3" style="enable-background:new 0 0 138.7 71.3;" xml:space="preserve">
<style type="text/css">
	.st0{fill-rule:evenodd;clip-rule:evenodd;fill:#FFFFFF;}
	.st1{fill-rule:evenodd;clip-rule:evenodd;fill:#4675C1;}
</style>
<g>
	<g>
		<g>
			<path class="st0" d="M40.5,28.3h3.2v21.9c0,2-0.2,3.5-0.6,4.5c-0.4,1-1.1,1.8-2,2.3c-0.9,0.6-2.1,0.9-3.4,0.9c-0.1,0-0.7,0-1.6,0
				v-3h0.8c0.9,0,1.6-0.1,2.1-0.3c0.5-0.2,0.9-0.6,1.1-1.2c0.3-0.6,0.4-1.7,0.4-3.6V28.3L40.5,28.3z M55.6,28.2h2.2l9.9,22.3h-3.2
				l-2.9-6.6h-7.8L55,41h5.3l-3.6-8l-2.5,6h0l-2,4.8h0l-0.7,1.6l-0.5,1.3l0,0l-1.6,3.7h-3.3L55.6,28.2L55.6,28.2z M79.4,28.2h2.2
				l9.9,22.3h-3.2l-2.9-6.6h-7.8l1.2-2.8h5.3l-3.6-8L78,39h0l-2,4.8h0l-2.8,6.6H70L79.4,28.2L79.4,28.2z M86.1,28.3v2.8h7.6v19.3
				h3.2V31.1h7.7v-2.8H86.1L86.1,28.3z M106.6,50.4V28.3h5.5c2.2,0,4,0.6,5.3,1.7c1.3,1.1,2,2.6,2,4.5c0,1.3-0.3,2.4-1,3.3
				c-0.6,0.9-1.6,1.6-2.8,2.1c0.7,0.5,1.4,1.1,2.1,1.9c0.7,0.8,1.6,2.2,2.9,4.2c0.8,1.3,1.4,2.2,1.9,2.8l1.2,1.6h-3.8l-1-1.5
				c0-0.1-0.1-0.1-0.2-0.3l-0.6-0.9l-1-1.6l-1.1-1.7c-0.6-1-1.3-1.6-1.8-2.2c-0.5-0.5-1-0.9-1.5-1.2c-0.4-0.2-1.2-0.4-2.2-0.4h-0.8
				v9.6H106.6L106.6,50.4z M110.7,31h-1v7h1.2c1.6,0,2.7-0.1,3.3-0.4c0.6-0.3,1.1-0.7,1.4-1.2c0.3-0.6,0.5-1.2,0.5-1.9
				c0-0.7-0.2-1.3-0.6-1.9c-0.4-0.6-0.9-1-1.6-1.2C113.4,31.1,112.3,31,110.7,31L110.7,31z M125.8,28.3h12.9v2.8H129v4.3v2.4v2.8
				v1.8v5.1h9.7v2.8h-12.9V28.3L125.8,28.3z M130.6,37.9v2.8h8.1v-2.8H130.6z"/>
			<path class="st1" d="M44.6,71c-0.5,0.3-1.2,0.1-1.5-0.4c-0.3-0.5-0.1-1.2,0.4-1.5c0.5-0.3,1.2-0.1,1.5,0.4
				C45.3,70,45.1,70.7,44.6,71L44.6,71z M40.8,70.9c-0.5,0.3-1.2,0.1-1.5-0.4c-0.3-0.5-0.1-1.2,0.4-1.5c0.5-0.3,1.2-0.1,1.5,0.4
				C41.5,70,41.3,70.6,40.8,70.9L40.8,70.9z M37,70c-0.5,0.3-1.2,0.1-1.5-0.4c-0.3-0.5-0.1-1.2,0.4-1.5c0.5-0.3,1.2-0.1,1.5,0.4
				C37.7,69.1,37.5,69.7,37,70L37,70z M33.4,69.3c-0.6,0.3-1.3,0.1-1.7-0.4c-0.3-0.6-0.1-1.3,0.4-1.7c0.6-0.3,1.3-0.1,1.7,0.4
				C34.2,68.2,34,69,33.4,69.3L33.4,69.3z M30,67.8c-0.7,0.4-1.5,0.2-1.9-0.5c-0.4-0.7-0.2-1.5,0.5-1.9c0.7-0.4,1.5-0.2,1.9,0.5
				C30.9,66.6,30.7,67.5,30,67.8L30,67.8z M26.8,65.8c0.7-0.4,0.9-1.2,0.5-1.9c-0.4-0.7-1.2-0.9-1.9-0.5c-0.7,0.4-0.9,1.2-0.5,1.9
				C25.3,66,26.2,66.2,26.8,65.8L26.8,65.8z M23.9,63.2c-0.7,0.4-1.5,0.2-1.9-0.5c-0.4-0.7-0.2-1.5,0.5-1.9c0.7-0.4,1.5-0.2,1.9,0.5
				C24.8,62,24.5,62.8,23.9,63.2L23.9,63.2z M21.4,60.4c0.7-0.4,0.9-1.2,0.5-1.9c-0.4-0.7-1.2-0.9-1.9-0.5c-0.7,0.4-0.9,1.2-0.5,1.9
				C19.9,60.6,20.8,60.8,21.4,60.4L21.4,60.4z M19.4,57.3c-0.7,0.4-1.5,0.2-1.9-0.5c-0.4-0.7-0.2-1.5,0.5-1.9
				c0.7-0.4,1.5-0.2,1.9,0.5C20.3,56.1,20.1,56.9,19.4,57.3L19.4,57.3z M17.7,53.7c-0.7,0.4-1.5,0.2-1.9-0.5
				c-0.4-0.7-0.2-1.5,0.5-1.9c0.7-0.4,1.5-0.2,1.9,0.5C18.6,52.5,18.4,53.3,17.7,53.7L17.7,53.7z M16.6,50c-0.7,0.4-1.5,0.2-1.9-0.5
				c-0.4-0.7-0.2-1.5,0.5-1.9c0.7-0.4,1.5-0.2,1.9,0.5C17.5,48.7,17.2,49.6,16.6,50L16.6,50z M16,46.2c-0.7,0.4-1.5,0.2-1.9-0.5
				c-0.4-0.7-0.2-1.5,0.5-1.9c0.7-0.4,1.5-0.2,1.9,0.5C16.9,45,16.7,45.9,16,46.2L16,46.2z M16.5,38.8c-0.8,0.4-1.7,0.2-2.2-0.6
				c-0.4-0.8-0.2-1.7,0.6-2.2c0.8-0.4,1.7-0.2,2.2,0.6C17.5,37.3,17.3,38.3,16.5,38.8L16.5,38.8z M17.5,35.2c0.8-0.4,1-1.4,0.6-2.2
				c-0.4-0.8-1.4-1-2.2-0.6c-0.8,0.4-1,1.4-0.6,2.2C15.7,35.4,16.7,35.6,17.5,35.2L17.5,35.2z M19,31.4c-0.8,0.4-1.7,0.2-2.2-0.6
				c-0.4-0.8-0.2-1.7,0.6-2.2c0.8-0.4,1.7-0.2,2.2,0.6C20.1,30,19.8,31,19,31.4L19,31.4z M20.9,28.1c0.7-0.4,0.9-1.2,0.5-1.9
				c-0.4-0.7-1.2-0.9-1.9-0.5c-0.7,0.4-0.9,1.2-0.5,1.9C19.4,28.2,20.2,28.5,20.9,28.1L20.9,28.1z M25.9,22.6
				c-0.7,0.4-1.5,0.2-1.9-0.5c-0.4-0.7-0.2-1.5,0.5-1.9c0.7-0.4,1.5-0.2,1.9,0.5C26.8,21.4,26.6,22.3,25.9,22.6L25.9,22.6z
				 M23.3,25.1c-0.7,0.4-1.5,0.2-1.9-0.5c-0.4-0.7-0.2-1.5,0.5-1.9c0.7-0.4,1.5-0.2,1.9,0.5C24.2,23.9,23.9,24.7,23.3,25.1
				L23.3,25.1z M29.2,20c-0.5,0.3-1.2,0.1-1.5-0.4c-0.3-0.5-0.1-1.2,0.4-1.5c0.5-0.3,1.2-0.1,1.5,0.4C29.9,19,29.7,19.7,29.2,20
				L29.2,20z M32.5,18.3c-0.5,0.3-1.2,0.1-1.5-0.4c-0.3-0.5-0.1-1.2,0.4-1.5c0.5-0.3,1.2-0.1,1.5,0.4C33.1,17.4,33,18,32.5,18.3
				L32.5,18.3z M36.1,17.1c-0.5,0.3-1.2,0.1-1.5-0.4c-0.3-0.5-0.1-1.2,0.4-1.5c0.5-0.3,1.2-0.1,1.5,0.4
				C36.8,16.1,36.7,16.8,36.1,17.1L36.1,17.1z M40.1,16.3c-0.5,0.3-1.2,0.1-1.5-0.4c-0.3-0.5-0.1-1.2,0.4-1.5
				c0.5-0.3,1.2-0.1,1.5,0.4C40.8,15.4,40.7,16,40.1,16.3L40.1,16.3z M15.9,42.5c-0.7,0.4-1.5,0.2-1.9-0.5c-0.4-0.7-0.2-1.5,0.5-1.9
				c0.7-0.4,1.5-0.2,1.9,0.5C16.8,41.2,16.6,42.1,15.9,42.5L15.9,42.5z M28.1,71.2c-0.5,0.3-1.2,0.1-1.5-0.4
				c-0.3-0.5-0.1-1.2,0.4-1.5c0.5-0.3,1.2-0.1,1.5,0.4C28.8,70.2,28.6,70.9,28.1,71.2L28.1,71.2z M24.4,68.8
				c-0.5,0.3-1.2,0.1-1.5-0.4c-0.3-0.5-0.1-1.2,0.4-1.5c0.5-0.3,1.2-0.1,1.5,0.4C25.1,67.9,24.9,68.5,24.4,68.8L24.4,68.8z M21.1,66
				c-0.5,0.3-1.2,0.1-1.5-0.4c-0.3-0.5-0.1-1.2,0.4-1.5c0.5-0.3,1.2-0.1,1.5,0.4C21.8,65,21.6,65.7,21.1,66L21.1,66z M18.2,62.7
				c-0.6,0.3-1.3,0.1-1.7-0.4c-0.3-0.6-0.1-1.3,0.4-1.7c0.6-0.3,1.3-0.1,1.7,0.4C19,61.6,18.8,62.4,18.2,62.7L18.2,62.7z M15.8,59.1
				c-0.6,0.3-1.3,0.1-1.7-0.4C13.8,58,14,57.3,14.6,57c0.6-0.3,1.3-0.1,1.7,0.4C16.6,58,16.4,58.7,15.8,59.1L15.8,59.1z M13.9,55.2
				c-0.6,0.3-1.3,0.1-1.7-0.4c-0.3-0.6-0.1-1.3,0.4-1.7c0.6-0.3,1.3-0.1,1.7,0.4C14.7,54.1,14.5,54.8,13.9,55.2L13.9,55.2z
				 M12.7,51.1c-0.7,0.4-1.5,0.2-1.9-0.5c-0.4-0.7-0.2-1.5,0.5-1.9c0.7-0.4,1.5-0.2,1.9,0.5C13.6,49.8,13.4,50.7,12.7,51.1
				L12.7,51.1z M12,46.7c-0.7,0.4-1.5,0.2-1.9-0.5c-0.4-0.7-0.2-1.5,0.5-1.9c0.7-0.4,1.5-0.2,1.9,0.5C12.9,45.4,12.7,46.3,12,46.7
				L12,46.7z M11.9,42.4c-0.7,0.4-1.5,0.2-1.9-0.5c-0.4-0.7-0.2-1.5,0.5-1.9c0.7-0.4,1.5-0.2,1.9,0.5C12.8,41.1,12.6,42,11.9,42.4
				L11.9,42.4z M12.4,38c-0.7,0.4-1.5,0.2-1.9-0.5c-0.4-0.7-0.2-1.5,0.5-1.9c0.7-0.4,1.5-0.2,1.9,0.5C13.3,36.7,13.1,37.6,12.4,38
				L12.4,38z M13.6,33.7c-0.7,0.4-1.5,0.2-1.9-0.5c-0.4-0.7-0.2-1.5,0.5-1.9c0.7-0.4,1.5-0.2,1.9,0.5C14.5,32.4,14.2,33.3,13.6,33.7
				L13.6,33.7z M15.3,29.9c-0.8,0.4-1.7,0.2-2.2-0.6c-0.4-0.8-0.2-1.7,0.6-2.2c0.8-0.4,1.7-0.2,2.2,0.6
				C16.4,28.5,16.1,29.5,15.3,29.9L15.3,29.9z M17.6,26.1c-0.8,0.4-1.7,0.2-2.2-0.6c-0.4-0.8-0.2-1.7,0.6-2.2
				c0.8-0.4,1.7-0.2,2.2,0.6C18.6,24.7,18.3,25.7,17.6,26.1L17.6,26.1z M20.4,22.6c0.8-0.4,1-1.4,0.6-2.2c-0.4-0.8-1.4-1-2.2-0.6
				c-0.8,0.4-1,1.4-0.6,2.2C18.7,22.8,19.7,23,20.4,22.6L20.4,22.6z M23.3,19.2c-0.5,0.3-1.2,0.1-1.5-0.4c-0.3-0.5-0.1-1.2,0.4-1.5
				s1.2-0.1,1.5,0.4C24,18.3,23.8,18.9,23.3,19.2L23.3,19.2z M27.1,16.6c-0.5,0.3-1.2,0.1-1.5-0.4c-0.3-0.5-0.1-1.2,0.4-1.5
				c0.5-0.3,1.2-0.1,1.5,0.4C27.8,15.6,27.6,16.3,27.1,16.6L27.1,16.6z M30.8,14.7c-0.5,0.3-1.2,0.1-1.5-0.4
				c-0.3-0.5-0.1-1.2,0.4-1.5c0.5-0.3,1.2-0.1,1.5,0.4C31.5,13.7,31.4,14.4,30.8,14.7L30.8,14.7z M35.4,13.1
				c-0.5,0.3-1.2,0.1-1.5-0.4c-0.3-0.5-0.1-1.2,0.4-1.5c0.5-0.3,1.2-0.1,1.5,0.4C36.1,12.2,35.9,12.8,35.4,13.1L35.4,13.1z
				 M39.5,12.4C39,12.7,38.3,12.5,38,12c-0.3-0.5-0.1-1.2,0.4-1.5c0.5-0.3,1.2-0.1,1.5,0.4C40.2,11.4,40,12.1,39.5,12.4L39.5,12.4z
				 M44,12.2c-0.5,0.3-1.2,0.1-1.5-0.4c-0.3-0.5-0.1-1.2,0.4-1.5c0.5-0.3,1.2-0.1,1.5,0.4C44.7,11.2,44.5,11.9,44,12.2L44,12.2z
				 M48.6,12.6c-0.5,0.3-1.2,0.1-1.5-0.4c-0.3-0.5-0.1-1.2,0.4-1.5c0.5-0.3,1.2-0.1,1.5,0.4C49.3,11.7,49.1,12.3,48.6,12.6
				L48.6,12.6z M53.1,13.8c-0.5,0.3-1.2,0.1-1.5-0.4c-0.3-0.5-0.1-1.2,0.4-1.5c0.5-0.3,1.2-0.1,1.5,0.4
				C53.8,12.8,53.6,13.5,53.1,13.8L53.1,13.8z M17.9,69.3c-0.5,0.3-1.2,0.1-1.5-0.4c-0.3-0.5-0.1-1.2,0.4-1.5
				c0.5-0.3,1.2-0.1,1.5,0.4C18.6,68.3,18.4,69,17.9,69.3L17.9,69.3z M14.4,65.3c-0.5,0.3-1.2,0.1-1.5-0.4c-0.3-0.5-0.1-1.2,0.4-1.5
				c0.5-0.3,1.2-0.1,1.5,0.4C15.1,64.4,14.9,65,14.4,65.3L14.4,65.3z M11.7,61.2c-0.5,0.3-1.2,0.1-1.5-0.4c-0.3-0.5-0.1-1.2,0.4-1.5
				c0.5-0.3,1.2-0.1,1.5,0.4C12.4,60.3,12.3,60.9,11.7,61.2L11.7,61.2z M9.6,56.7C9,57.1,8.3,56.9,8,56.3c-0.3-0.6-0.1-1.3,0.4-1.7
				c0.6-0.3,1.3-0.1,1.7,0.4C10.4,55.6,10.2,56.4,9.6,56.7L9.6,56.7z M8.2,52c-0.6,0.3-1.3,0.1-1.7-0.4c-0.3-0.6-0.1-1.3,0.4-1.7
				s1.3-0.1,1.7,0.4C8.9,50.9,8.7,51.6,8.2,52L8.2,52z M7.4,47.1c-0.6,0.3-1.3,0.1-1.7-0.4c-0.3-0.6-0.1-1.3,0.4-1.7
				c0.6-0.3,1.3-0.1,1.7,0.4C8.1,46,7.9,46.7,7.4,47.1L7.4,47.1z M7.3,41.8c-0.6,0.3-1.3,0.1-1.7-0.4C5.3,40.7,5.5,40,6,39.6
				c0.6-0.3,1.3-0.1,1.7,0.4C8,40.7,7.8,41.4,7.3,41.8L7.3,41.8z M7.8,37.1c-0.6,0.3-1.3,0.1-1.7-0.4C5.8,36,6,35.3,6.6,34.9
				c0.6-0.3,1.3-0.1,1.7,0.4C8.6,36,8.4,36.7,7.8,37.1L7.8,37.1z M9.3,32.1c-0.7,0.4-1.5,0.2-1.9-0.5C7,31,7.2,30.1,7.9,29.7
				c0.7-0.4,1.5-0.2,1.9,0.5C10.1,30.9,9.9,31.8,9.3,32.1L9.3,32.1z M11.2,27.6c-0.7,0.4-1.5,0.2-1.9-0.5c-0.4-0.7-0.2-1.5,0.5-1.9
				c0.7-0.4,1.5-0.2,1.9,0.5C12.1,26.4,11.8,27.2,11.2,27.6L11.2,27.6z M14,23.3c0.8-0.4,1-1.4,0.6-2.2c-0.4-0.8-1.4-1-2.2-0.6
				c-0.8,0.4-1,1.4-0.6,2.2C12.2,23.4,13.2,23.7,14,23.3L14,23.3z M17.1,19.5c-0.8,0.4-1.7,0.2-2.2-0.6c-0.4-0.8-0.2-1.7,0.6-2.2
				c0.8-0.4,1.7-0.2,2.2,0.6C18.1,18.1,17.8,19,17.1,19.5L17.1,19.5z M20.8,16c-0.8,0.4-1.7,0.2-2.2-0.6c-0.4-0.8-0.2-1.7,0.6-2.2
				c0.8-0.4,1.7-0.2,2.2,0.6C21.9,14.5,21.6,15.5,20.8,16L20.8,16z M25,13.1c-0.8,0.4-1.7,0.2-2.2-0.6c-0.4-0.8-0.2-1.7,0.6-2.2
				c0.8-0.4,1.7-0.2,2.2,0.6C26,11.7,25.8,12.6,25,13.1L25,13.1z M29.4,10.6c-0.7,0.4-1.5,0.2-1.9-0.5c-0.4-0.7-0.2-1.5,0.5-1.9
				c0.7-0.4,1.5-0.2,1.9,0.5C30.3,9.4,30,10.3,29.4,10.6L29.4,10.6z M34.5,8.9c-0.7,0.4-1.5,0.2-1.9-0.5c-0.4-0.7-0.2-1.5,0.5-1.9
				C33.7,6.1,34.6,6.4,35,7C35.4,7.7,35.1,8.6,34.5,8.9L34.5,8.9z M39.3,8.1c-0.7,0.4-1.5,0.2-1.9-0.5C37,6.9,37.2,6,37.9,5.6
				c0.7-0.4,1.5-0.2,1.9,0.5C40.2,6.8,40,7.7,39.3,8.1L39.3,8.1z M44.6,7.9C43.9,8.2,43,8,42.7,7.4c-0.4-0.7-0.2-1.5,0.5-1.9
				c0.7-0.4,1.5-0.2,1.9,0.5C45.5,6.6,45.2,7.5,44.6,7.9L44.6,7.9z M49.7,8.3c-0.6,0.3-1.3,0.1-1.7-0.4c-0.3-0.6-0.1-1.3,0.4-1.7
				c0.6-0.3,1.3-0.1,1.7,0.4C50.5,7.2,50.3,8,49.7,8.3L49.7,8.3z M54.5,9.5c-0.6,0.3-1.3,0.1-1.7-0.4c-0.3-0.6-0.1-1.3,0.4-1.7
				c0.6-0.3,1.3-0.1,1.7,0.4C55.3,8.4,55.1,9.2,54.5,9.5L54.5,9.5z M59,11.2c-0.5,0.3-1.2,0.1-1.5-0.4c-0.3-0.5-0.1-1.2,0.4-1.5
				c0.5-0.3,1.2-0.1,1.5,0.4C59.7,10.3,59.5,11,59,11.2L59,11.2z M63.6,13.9c-0.5,0.3-1.2,0.1-1.5-0.4C61.8,13,62,12.3,62.5,12
				c0.5-0.3,1.2-0.1,1.5,0.4C64.3,13,64.1,13.6,63.6,13.9L63.6,13.9z M67.7,17.2c-0.5,0.3-1.2,0.1-1.5-0.4c-0.3-0.5-0.1-1.2,0.4-1.5
				c0.5-0.3,1.2-0.1,1.5,0.4C68.4,16.2,68.2,16.9,67.7,17.2L67.7,17.2z M78.6,22.4c-0.5,0.3-1.2,0.1-1.5-0.4
				c-0.3-0.5-0.1-1.2,0.4-1.5c0.5-0.3,1.2-0.1,1.5,0.4C79.3,21.5,79.1,22.1,78.6,22.4L78.6,22.4z M75.5,17.9
				C75,18.2,74.3,18,74,17.5c-0.3-0.5-0.1-1.2,0.4-1.5c0.5-0.3,1.2-0.1,1.5,0.4C76.2,16.9,76,17.6,75.5,17.9L75.5,17.9z M71.4,13.5
				c-0.5,0.3-1.2,0.1-1.5-0.4c-0.3-0.5-0.1-1.2,0.4-1.5c0.5-0.3,1.2-0.1,1.5,0.4C72.1,12.5,72,13.2,71.4,13.5L71.4,13.5z M66.7,9.8
				c-0.6,0.3-1.3,0.1-1.7-0.4c-0.3-0.6-0.1-1.3,0.4-1.7c0.6-0.3,1.3-0.1,1.7,0.4C67.5,8.7,67.3,9.4,66.7,9.8L66.7,9.8z M61.5,6.7
				c-0.6,0.3-1.3,0.1-1.7-0.4c-0.3-0.6-0.1-1.3,0.4-1.7c0.6-0.3,1.3-0.1,1.7,0.4C62.2,5.6,62,6.3,61.5,6.7L61.5,6.7z M56.3,4.7
				c-0.7,0.4-1.5,0.2-1.9-0.5c-0.4-0.7-0.2-1.5,0.5-1.9c0.7-0.4,1.5-0.2,1.9,0.5C57.2,3.4,56.9,4.3,56.3,4.7L56.3,4.7z M50.5,3.2
				c-0.7,0.4-1.5,0.2-1.9-0.5c-0.4-0.7-0.2-1.5,0.5-1.9c0.7-0.4,1.5-0.2,1.9,0.5C51.4,2,51.2,2.8,50.5,3.2L50.5,3.2z M44.6,2.6
				C43.9,3,43,2.8,42.7,2.1c-0.4-0.7-0.2-1.5,0.5-1.9c0.7-0.4,1.5-0.2,1.9,0.5C45.5,1.4,45.2,2.2,44.6,2.6L44.6,2.6z M38.6,3
				c-0.8,0.4-1.7,0.2-2.2-0.6c-0.4-0.8-0.2-1.7,0.6-2.2c0.8-0.4,1.7-0.2,2.2,0.6C39.6,1.6,39.3,2.6,38.6,3L38.6,3z M32.9,4.1
				c-0.8,0.4-1.7,0.2-2.2-0.6c-0.4-0.8-0.2-1.7,0.6-2.2c0.8-0.4,1.7-0.2,2.2,0.6C34,2.7,33.7,3.7,32.9,4.1L32.9,4.1z M27.5,6
				c-0.8,0.4-1.7,0.2-2.2-0.6c-0.4-0.8-0.2-1.7,0.6-2.2c0.8-0.4,1.7-0.2,2.2,0.6C28.5,4.5,28.2,5.5,27.5,6L27.5,6z M22.3,8.5
				C21.6,9,20.6,8.7,20.2,8c-0.4-0.8-0.2-1.7,0.6-2.2c0.8-0.4,1.7-0.2,2.2,0.6C23.4,7.1,23.1,8.1,22.3,8.5L22.3,8.5z M17.5,11.9
				c-0.8,0.4-1.7,0.2-2.2-0.6c-0.4-0.8-0.2-1.7,0.6-2.2c0.8-0.4,1.7-0.2,2.2,0.6C18.5,10.5,18.2,11.5,17.5,11.9L17.5,11.9z
				 M13.2,15.9c-0.8,0.4-1.7,0.2-2.2-0.6c-0.4-0.8-0.2-1.7,0.6-2.2c0.8-0.4,1.7-0.2,2.2,0.6C14.2,14.5,14,15.5,13.2,15.9L13.2,15.9z
				 M9.6,20.4c-0.8,0.4-1.7,0.2-2.2-0.6C7,19,7.2,18.1,8,17.6c0.8-0.4,1.7-0.2,2.2,0.6S10.3,19.9,9.6,20.4L9.6,20.4z M4.1,31
				c-0.7,0.4-1.5,0.2-1.9-0.5c-0.4-0.7-0.2-1.5,0.5-1.9c0.7-0.4,1.5-0.2,1.9,0.5C5,29.7,4.8,30.6,4.1,31L4.1,31z M2.8,36
				c-0.7,0.4-1.5,0.2-1.9-0.5c-0.4-0.7-0.2-1.5,0.5-1.9c0.7-0.4,1.5-0.2,1.9,0.5C3.7,34.8,3.4,35.7,2.8,36L2.8,36z M2.1,41.7
				c-0.7,0.4-1.5,0.2-1.9-0.5c-0.4-0.7-0.2-1.5,0.5-1.9c0.7-0.4,1.5-0.2,1.9,0.5C3,40.5,2.8,41.3,2.1,41.7L2.1,41.7z M2.1,47.5
				c-0.6,0.3-1.3,0.1-1.7-0.4c-0.3-0.6-0.1-1.3,0.4-1.7c0.6-0.3,1.3-0.1,1.7,0.4C2.9,46.4,2.7,47.2,2.1,47.5L2.1,47.5z M3,53.2
				c-0.6,0.3-1.3,0.1-1.7-0.4c-0.3-0.6-0.1-1.3,0.4-1.7c0.6-0.3,1.3-0.1,1.7,0.4C3.8,52.1,3.6,52.9,3,53.2L3,53.2z M4.7,58.5
				c-0.5,0.3-1.2,0.1-1.5-0.4c-0.3-0.5-0.1-1.2,0.4-1.5c0.5-0.3,1.2-0.1,1.5,0.4C5.4,57.5,5.2,58.2,4.7,58.5L4.7,58.5z M7,63.2
				c-0.5,0.3-1.2,0.1-1.5-0.4c-0.3-0.5-0.1-1.2,0.4-1.5c0.5-0.3,1.2-0.1,1.5,0.4C7.7,62.2,7.5,62.9,7,63.2L7,63.2z M6.6,25.2
				c-0.7,0.4-1.5,0.2-1.9-0.5c-0.4-0.7-0.2-1.5,0.5-1.9c0.7-0.4,1.5-0.2,1.9,0.5C7.5,24,7.2,24.9,6.6,25.2z"/>
		</g>
	</g>
</g>
</svg>
